<?xml version="1.0" encoding="iso-8859-1"?>
<!-- Generator: Adobe Illustrator 16.0.0, SVG Export Plug-In . SVG Version: 6.00 Build 0)  -->
<!DOCTYPE svg PUBLIC "-//W3C//DTD SVG 1.1//EN" "http://www.w3.org/Graphics/SVG/1.1/DTD/svg11.dtd">
<svg version="1.1" id="Capa_1" xmlns="http://www.w3.org/2000/svg" xmlns:xlink="http://www.w3.org/1999/xlink" x="0px" y="0px"
	 width="792px" height="792px" viewBox="0 0 792 792" style="enable-background:new 0 0 792 792;" xml:space="preserve">
<g>
	<g id="Shape_27">
		<g>
			<path d="M357.922,489.06V15.231c0-8.423-6.823-15.231-15.23-15.231h-60.923c-8.407,0-15.23,6.808-15.23,15.231V489.06
				c-28.908,6.763-45.692,33.538-45.692,74.479v152.308C220.846,757.838,255.008,792,297,792h30.461
				c41.991,0,76.154-34.162,76.154-76.154V563.538C403.615,522.598,386.831,495.822,357.922,489.06z M373.153,715.846
				c0,25.192-20.5,45.692-45.692,45.692H297c-25.192,0-45.692-20.5-45.692-45.692V563.538c0-45.692,22.922-45.692,30.461-45.692
				c8.408,0,15.231-6.808,15.231-15.23V30.461h30.461v472.154c0,8.423,6.824,15.23,15.231,15.23c7.539,0,30.461,0,30.461,45.692
				V715.846z M495,45.692h60.922c8.408,0,15.232-6.808,15.232-15.231c0-8.422-6.824-15.23-15.232-15.23H495
				c-8.408,0-15.23,6.808-15.23,15.23C479.77,38.884,486.592,45.692,495,45.692z M555.922,198H495
				c-8.408,0-15.23,6.808-15.23,15.231c0,8.422,6.822,15.23,15.23,15.23h60.922c8.408,0,15.232-6.808,15.232-15.23
				C571.154,204.808,564.33,198,555.922,198z M555.922,380.769H495c-8.408,0-15.23,6.808-15.23,15.231s6.822,15.23,15.23,15.23
				h60.922c8.408,0,15.232-6.808,15.232-15.23S564.33,380.769,555.922,380.769z M555.922,563.538H495
				c-8.408,0-15.23,6.809-15.23,15.231c0,8.422,6.822,15.23,15.23,15.23h60.922c8.408,0,15.232-6.809,15.232-15.23
				C571.154,570.347,564.33,563.538,555.922,563.538z M555.922,746.308H495c-8.408,0-15.23,6.809-15.23,15.23
				c0,8.423,6.822,15.231,15.23,15.231h60.922c8.408,0,15.232-6.809,15.232-15.231C571.154,753.116,564.33,746.308,555.922,746.308z
				 M281.769,700.615c0,16.754,9.748,30.462,26.502,30.462h7.935c16.754,0,26.486-13.708,26.486-30.462v-76.153h-60.923V700.615z"/>
		</g>
	</g>
</g>
<g>
</g>
<g>
</g>
<g>
</g>
<g>
</g>
<g>
</g>
<g>
</g>
<g>
</g>
<g>
</g>
<g>
</g>
<g>
</g>
<g>
</g>
<g>
</g>
<g>
</g>
<g>
</g>
<g>
</g>
</svg>
